<svg xmlns="http://www.w3.org/2000/svg" xmlns:xlink="http://www.w3.org/1999/xlink" xmlns:sketch="http://www.bohemiancoding.com/sketch/ns" viewBox="0 0 30 37.5" version="1.1" x="0px" y="0px"><title>map_021-location-marker-add-new-pin</title><desc>Created with Sketch.</desc><g stroke="none" stroke-width="1" fill="none" fill-rule="evenodd" sketch:type="MSPage"><g sketch:type="MSArtboardGroup" transform="translate(-45.000000, -135.000000)" fill="#000000"><path fill="#F62459" d="M66,157 L66,158.5 C66,158.776142 65.7761424,159 65.5,159 C65.2238576,159 65,158.776142 65,158.5 L65,157 L63.5,157 C63.2238576,157 63,156.776142 63,156.5 C63,156.223858 63.2238576,156 63.5,156 L65,156 L65,154.5 C65,154.223858 65.2238576,154 65.5,154 C65.7761424,154 66,154.223858 66,154.5 L66,156 L67.5,156 C67.7761424,156 68,156.223858 68,156.5 C68,156.776142 67.7761424,157 67.5,157 L66,157 Z M61.2291506,159.965804 C61.2055347,159.999303 61.1819178,160.032759 61.158301,160.066171 C60.828389,160.532919 60.521957,160.957769 60.2468,161.332577 C60.081307,161.558005 59.962721,161.717043 59.898844,161.801535 C59.698786,162.066155 59.301214,162.066155 59.101156,161.801535 C59.037279,161.717043 58.918693,161.558005 58.7532,161.332577 C58.478043,160.957769 58.171611,160.532919 57.841699,160.066171 C56.899125,158.732652 55.956519,157.329678 55.076086,155.92199 C54.509272,155.015735 53.986452,154.135938 53.516719,153.291917 C51.907443,150.400353 51,148.08905 51,146.5 C51,141.80558 54.80558,138 59.5,138 C64.19442,138 68,141.80558 68,146.5 C68,147.666873 67.510682,149.223204 66.6134604,151.11277 C66.2716843,151.042499 65.9183373,151.003934 65.5566287,151.000285 C66.4894682,149.092289 67,147.550281 67,146.5 C67,142.357864 63.642136,139 59.5,139 C55.357864,139 52,142.357864 52,146.5 C52,147.864159 52.861275,150.057869 54.39051,152.805615 C54.851467,153.633867 55.365694,154.499204 55.923914,155.391719 C56.793481,156.782032 57.725875,158.169808 58.658301,159.48897 C58.984639,159.95066 59.5,160.649353 59.5,160.649353 C59.5,160.649353 60.015361,159.95066 60.341699,159.48897 C60.4398787,159.350069 60.5380581,159.210407 60.6361637,159.070062 C60.80476,159.388469 61.0037069,159.688335 61.2291506,159.965804 Z M59.5,149 C61.432997,149 63,147.432997 63,145.5 C63,143.567003 61.432997,142 59.5,142 C57.567003,142 56,143.567003 56,145.5 C56,147.432997 57.567003,149 59.5,149 Z M59.5,148 C60.880712,148 62,146.880712 62,145.5 C62,144.119288 60.880712,143 59.5,143 C58.119288,143 57,144.119288 57,145.5 C57,146.880712 58.119288,148 59.5,148 Z M65.5,161 C67.9852814,161 70,158.985281 70,156.5 C70,154.014719 67.9852814,152 65.5,152 C63.0147186,152 61,154.014719 61,156.5 C61,158.985281 63.0147186,161 65.5,161 Z M65.5,160 C67.4329966,160 69,158.432997 69,156.5 C69,154.567003 67.4329966,153 65.5,153 C63.5670034,153 62,154.567003 62,156.5 C62,158.432997 63.5670034,160 65.5,160 Z" sketch:type="MSShapeGroup"/></g></g><text x="0" y="45" fill="#000000" font-size="5px" font-weight="bold" font-family="'Helvetica Neue', Helvetica, Arial-Unicode, Arial, Sans-serif"></text><text x="0" y="50" fill="#000000" font-size="5px" font-weight="bold" font-family="'Helvetica Neue', Helvetica, Arial-Unicode, Arial, Sans-serif"></text></svg>
