<svg xmlns="http://www.w3.org/2000/svg" xmlns:xlink="http://www.w3.org/1999/xlink" xmlns:sketch="http://www.bohemiancoding.com/sketch/ns" viewBox="0 0 30 37.5" version="1.1" x="0px" y="0px"><title>travel_007-take_off-airplane-aircraft-flight-departure</title><desc>Created with Sketch.</desc><g stroke="none" stroke-width="1" fill="none" fill-rule="evenodd" sketch:type="MSPage"><g sketch:type="MSArtboardGroup" transform="translate(-315.000000, -45.000000)" fill="#000000"><path fill="#F62459" d="M316.689318,65.5340478 L315.201045,63.482202 C315.003979,63.2105115 315.043212,62.80834 315.294224,62.5788533 L316.728125,61.2679169 C316.976653,61.0407017 317.381399,61.0236866 317.641259,61.2374037 L319.614361,62.8601447 C319.699574,62.9302264 319.843828,62.9456412 319.948133,62.8882024 L327.458569,58.7523598 L321.190093,50.7395299 C320.850532,50.3054771 320.987861,49.77683 321.491871,49.5524299 L322.407323,49.1448445 C322.915525,48.9185784 323.682976,48.9998362 324.130833,49.322171 L332.996271,55.7028608 L337.217119,53.378526 C339.046624,52.3710554 341.836632,52.64713 343.441468,53.9890448 L344.051614,54.4992302 C345.322747,55.5621135 345.117303,56.9331126 343.573629,57.5693188 L324.291875,65.5160573 C324.013113,65.2506527 323.706529,65.0142039 323.376948,64.8115338 L343.192584,56.6447622 C344.037952,56.2963544 344.106808,55.848908 343.410146,55.2663804 L342.8,54.756195 C341.50992,53.6774694 339.165968,53.4469336 337.699495,54.2544905 L320.430509,63.7641669 C319.969987,64.017767 319.382677,63.964356 318.97916,63.632491 L317.209253,62.1819396 L316.175054,63.1218861 L317.470965,64.9085275 C317.191516,65.093254 316.929919,65.3028085 316.689318,65.5340478 Z M332.010469,56.2457213 L323.358526,50.0051135 C323.262305,49.9357099 323.113892,49.9248959 323.012127,49.9702049 L322.138542,50.35915 L328.349284,58.2618609 L332.010469,56.2457213 Z M320.5,74 C322.985281,74 325,71.9852814 325,69.5 C325,67.0147186 322.985281,65 320.5,65 C318.014719,65 316,67.0147186 316,69.5 C316,71.9852814 318.014719,74 320.5,74 Z M320.5,73 C322.432997,73 324,71.4329966 324,69.5 C324,67.5670034 322.432997,66 320.5,66 C318.567003,66 317,67.5670034 317,69.5 C317,71.4329966 318.567003,73 320.5,73 Z M319.792893,71.1213203 C319.988155,71.3165825 320.304738,71.3165825 320.5,71.1213203 L322.62132,69 C322.816582,68.8047379 322.816582,68.4881554 322.62132,68.2928932 C322.426058,68.0976311 322.109476,68.0976311 321.914214,68.2928932 L320.146447,70.0606602 L319.085786,69 C318.890524,68.8047379 318.573942,68.8047379 318.37868,69 C318.183418,69.1952621 318.183418,69.5118446 318.37868,69.7071068 L319.792893,71.1213203 Z" sketch:type="MSShapeGroup"/></g></g><text x="0" y="45" fill="#000000" font-size="5px" font-weight="bold" font-family="'Helvetica Neue', Helvetica, Arial-Unicode, Arial, Sans-serif">Created by Pham Thi Dieu Linh</text><text x="0" y="50" fill="#000000" font-size="5px" font-weight="bold" font-family="'Helvetica Neue', Helvetica, Arial-Unicode, Arial, Sans-serif">from the Noun Project</text></svg>
