<svg xmlns="http://www.w3.org/2000/svg" data-name="Layer 1" viewBox="0 0 50 62.5" x="0px" y="0px"><title>communication_tnp</title><path fill="#F62459" d="M45,38a1,1,0,0,1-1,1H40v4a1,1,0,0,1-2,0V39H34a1,1,0,0,1,0-2h4V33a1,1,0,0,1,2,0v4h4A1,1,0,0,1,45,38Zm4-.1a10,10,0,1,1-16.64-7.47,17.93,17.93,0,0,0-4.88-2.73,13.78,13.78,0,0,1-12.71,0A18,18,0,0,0,3,44.47a1,1,0,0,1-2,0,19.94,19.94,0,0,1,11.71-18.1A13.55,13.55,0,0,1,7.38,15.62a13.75,13.75,0,0,1,27.5,0,13.55,13.55,0,0,1-5.34,10.75A19.85,19.85,0,0,1,34,29.19a9.78,9.78,0,0,1,5-1.4A10,10,0,0,1,49,37.9ZM32.88,15.62a11.75,11.75,0,0,0-23.5,0A11.75,11.75,0,0,0,32.88,15.62ZM47,37.9A8,8,0,1,0,39,46,8,8,0,0,0,47,37.9Z"/><text x="0" y="65" fill="#000000" font-size="5px" font-weight="bold" font-family="'Helvetica Neue', Helvetica, Arial-Unicode, Arial, Sans-serif"></text><text x="0" y="70" fill="#000000" font-size="5px" font-weight="bold" font-family="'Helvetica Neue', Helvetica, Arial-Unicode, Arial, Sans-serif"></text></svg>
