<svg xmlns="http://www.w3.org/2000/svg" xmlns:xlink="http://www.w3.org/1999/xlink" version="1.1" x="0px" y="0px" viewBox="0 0 100 125" enable-background="new 0 0 100 100" xml:space="preserve"><path fill="#4183D7" d="M39.01,36.059c0,3.279-2.592,5.946-5.79,5.946c-3.183,0-5.774-2.667-5.774-5.946c0-3.287,2.592-5.95,5.774-5.95  C36.418,30.109,39.01,32.772,39.01,36.059z M33.454,29.15c0.152,0.015,0.294,0.037,0.438,0.037c0.071,0,0.146-0.008,0.209-0.022  c0.233-0.029,0.379-0.104,0.449-0.237c0.205-0.372-0.171-1.142-0.469-1.756c-0.163-0.368-0.319-0.684-0.36-0.911  c-0.037-0.093-0.06-0.2-0.078-0.319c-0.078-0.335-0.122-0.535-0.364-0.535h-0.041c-0.193,0.019-0.323,0.412-0.391,0.62l-0.097,0.261  c-0.104,0.331-0.208,0.647-0.405,0.944c-0.041,0.052-0.078,0.111-0.111,0.164c-0.253,0.368-0.517,0.743-0.457,1.16  c0.041,0.476,0.353,0.714,0.77,0.609C32.837,29.09,33.16,29.113,33.454,29.15z M32.234,44.701c0.033,0.06,0.07,0.115,0.111,0.171  c0.197,0.298,0.302,0.61,0.405,0.945l0.097,0.252c0.067,0.216,0.197,0.61,0.391,0.625h0.041c0.242,0,0.286-0.2,0.364-0.531  c0.019-0.123,0.041-0.228,0.078-0.324c0.041-0.223,0.197-0.543,0.36-0.911c0.298-0.613,0.674-1.379,0.469-1.751  c-0.07-0.13-0.216-0.212-0.449-0.245c-0.216-0.03-0.425-0.008-0.647,0.022c-0.294,0.037-0.617,0.059-0.907-0.02  c-0.063-0.019-0.138-0.021-0.189-0.021c-0.324,0-0.539,0.234-0.58,0.636C31.718,43.964,31.981,44.336,32.234,44.701z M26.545,35.062  c-0.066-0.461-0.294-0.513-0.491-0.513c-0.397,0-0.959,0.282-1.442,0.528c-0.364,0.186-0.666,0.346-0.893,0.379  c-0.085,0.037-0.197,0.06-0.309,0.089c-0.364,0.082-0.535,0.149-0.513,0.409c0.019,0.209,0.397,0.343,0.605,0.417l0.242,0.089  c0.312,0.115,0.625,0.224,0.918,0.428c0.053,0.041,0.112,0.082,0.164,0.115c0.354,0.261,0.71,0.528,1.115,0.476  c0.234-0.025,0.405-0.118,0.518-0.268c0.097-0.145,0.122-0.331,0.07-0.543c-0.078-0.346-0.045-0.643-0.012-0.93  C26.545,35.508,26.563,35.292,26.545,35.062z M39.987,37.211c0.104,0.149,0.283,0.242,0.518,0.268  c0.397,0.053,0.762-0.215,1.107-0.476c0.06-0.033,0.111-0.074,0.164-0.115c0.294-0.204,0.613-0.312,0.926-0.428l0.241-0.089  c0.209-0.074,0.596-0.208,0.606-0.417c0.026-0.26-0.148-0.327-0.513-0.409c-0.119-0.029-0.224-0.052-0.312-0.089  c-0.216-0.033-0.532-0.193-0.882-0.379c-0.498-0.246-1.052-0.528-1.45-0.528c-0.189,0-0.424,0.052-0.49,0.513  c-0.019,0.23,0,0.446,0.025,0.677c0.034,0.294,0.074,0.584-0.011,0.93C39.865,36.88,39.891,37.067,39.987,37.211z M28.274,29.016  c-0.041,0.446-0.086,0.899,0.156,1.242c0.156,0.208,0.338,0.319,0.527,0.319c0.149,0,0.312-0.066,0.439-0.2  c0.245-0.242,0.521-0.361,0.773-0.477c0.204-0.097,0.401-0.179,0.576-0.323c0.189-0.146,0.275-0.294,0.268-0.446  c-0.019-0.428-0.691-0.896-1.246-1.275c-0.334-0.227-0.62-0.428-0.758-0.595c-0.086-0.067-0.149-0.149-0.228-0.238  c-0.138-0.148-0.29-0.32-0.431-0.32c-0.053,0-0.112,0.02-0.179,0.06c-0.156,0.119-0.082,0.532-0.037,0.759l0.037,0.261  c0.074,0.342,0.138,0.669,0.111,1.033C28.274,28.882,28.274,28.946,28.274,29.016z M38.515,44.21  c-0.085-0.209-0.1-0.565-0.126-0.979c-0.052-0.8-0.115-1.804-0.65-1.804c-0.086,0-0.183,0.019-0.294,0.067  c-0.216,0.089-0.38,0.216-0.562,0.356c-0.23,0.175-0.465,0.354-0.792,0.45c-0.193,0.056-0.346,0.168-0.409,0.316  c-0.078,0.179-0.067,0.397,0.025,0.617c0.164,0.387,0.569,0.58,0.96,0.766c0.06,0.03,0.115,0.06,0.175,0.09  c0.319,0.148,0.576,0.379,0.821,0.603l0.205,0.178c0.163,0.149,0.469,0.417,0.646,0.335c0.228-0.119,0.193-0.312,0.082-0.673  C38.56,44.418,38.526,44.314,38.515,44.21z M38.273,26.796c-0.179,0-0.428,0.219-0.569,0.346L37.5,27.321  c-0.242,0.215-0.495,0.449-0.807,0.609c-0.067,0.026-0.127,0.052-0.179,0.082c-0.398,0.186-0.808,0.379-0.963,0.766  c-0.094,0.224-0.104,0.446-0.022,0.617c0.074,0.149,0.204,0.261,0.405,0.32c0.327,0.089,0.562,0.275,0.792,0.45  c0.182,0.137,0.346,0.264,0.554,0.353c0.115,0.049,0.208,0.074,0.305,0.074l0,0c0.524,0,0.596-1.004,0.647-1.814  c0.026-0.409,0.045-0.759,0.119-0.971c0.011-0.1,0.052-0.212,0.082-0.319c0.118-0.376,0.145-0.562-0.082-0.673  C38.329,26.799,38.303,26.796,38.273,26.796z M28.196,45.318c0.141,0,0.294-0.178,0.428-0.323c0.074-0.089,0.145-0.175,0.23-0.234  c0.138-0.179,0.431-0.372,0.751-0.603c0.554-0.379,1.238-0.848,1.253-1.271c0.004-0.156-0.078-0.301-0.26-0.45  c-0.19-0.141-0.376-0.223-0.584-0.323c-0.261-0.107-0.528-0.23-0.77-0.469c-0.138-0.142-0.287-0.212-0.436-0.212  c-0.204,0-0.387,0.119-0.535,0.323c-0.242,0.335-0.205,0.8-0.164,1.242c0,0.067,0.012,0.134,0.019,0.201  c0.019,0.364-0.037,0.706-0.104,1.033L27.98,44.5c-0.049,0.215-0.127,0.628,0.045,0.751C28.085,45.292,28.144,45.318,28.196,45.318z   M24.749,31.485c0.223,0.257,0.432,0.521,0.588,0.845c0.033,0.062,0.059,0.122,0.085,0.186c0.183,0.405,0.364,0.822,0.736,0.989  c0.119,0.048,0.234,0.078,0.339,0.078l0,0c0.282,0,0.476-0.171,0.568-0.483c0.086-0.335,0.268-0.573,0.438-0.807  c0.123-0.19,0.246-0.357,0.339-0.577c0.089-0.23,0.089-0.401,0.011-0.531c-0.227-0.354-1.041-0.409-1.695-0.45  c-0.397-0.026-0.751-0.052-0.944-0.134c-0.108-0.008-0.212-0.045-0.316-0.086c-0.134-0.04-0.271-0.085-0.383-0.085  c-0.13,0-0.204,0.052-0.261,0.175c-0.085,0.197,0.183,0.502,0.324,0.681L24.749,31.485z M38.648,39.986  c-0.134,0.156-0.215,0.327-0.193,0.502c0.012,0.183,0.123,0.368,0.312,0.51c0.175,0.134,0.391,0.193,0.711,0.193  c0.163,0,0.327-0.016,0.483-0.03c0.07-0.004,0.13-0.007,0.196-0.015c0.06-0.008,0.112-0.008,0.168-0.008  c0.29,0,0.568,0.053,0.829,0.112l0.26,0.052c0.135,0.022,0.283,0.052,0.432,0.052c0.23,0,0.283-0.082,0.294-0.104  c0.152-0.216,0.033-0.365-0.242-0.625c-0.089-0.078-0.167-0.156-0.227-0.238c-0.175-0.142-0.372-0.438-0.58-0.773  c-0.36-0.547-0.848-1.294-1.253-1.294c-0.138,0-0.282,0.089-0.413,0.275c-0.138,0.186-0.219,0.379-0.305,0.595  C39.002,39.458,38.88,39.733,38.648,39.986z M25.243,39.614c-0.215,0.335-0.401,0.632-0.58,0.773  c-0.052,0.082-0.13,0.16-0.227,0.238c-0.282,0.26-0.397,0.409-0.249,0.625c0.019,0.021,0.066,0.104,0.294,0.104  c0.145,0,0.305-0.029,0.431-0.052l0.253-0.052c0.32-0.063,0.655-0.135,1.012-0.104c0.067,0.008,0.119,0.011,0.197,0.015  c0.156,0.015,0.319,0.03,0.476,0.03c0.32,0,0.543-0.06,0.711-0.193c0.189-0.142,0.309-0.327,0.319-0.51  c0.015-0.175-0.056-0.346-0.208-0.502c-0.227-0.253-0.339-0.528-0.458-0.796c-0.089-0.216-0.174-0.409-0.305-0.595  c-0.138-0.187-0.282-0.275-0.416-0.275C26.08,38.32,25.597,39.067,25.243,39.614z M40.902,32.515  c0.033-0.063,0.06-0.123,0.089-0.186c0.152-0.324,0.372-0.588,0.588-0.845l0.171-0.2c0.148-0.172,0.417-0.483,0.327-0.681  c-0.06-0.123-0.145-0.175-0.257-0.175c-0.122,0-0.252,0.045-0.39,0.085c-0.104,0.041-0.209,0.078-0.306,0.086  c-0.212,0.082-0.558,0.107-0.955,0.134c-0.658,0.041-1.469,0.097-1.685,0.45c-0.089,0.13-0.082,0.301,0,0.531  c0.093,0.22,0.216,0.387,0.354,0.577c0.171,0.233,0.334,0.472,0.431,0.814c0.123,0.431,0.483,0.58,0.9,0.397  C40.538,33.344,40.724,32.92,40.902,32.515z M95,23.974v52.06c0,5.861-4.782,10.621-10.699,10.621H15.69  C9.785,86.654,5,81.895,5,76.033v-52.06c0-5.868,4.785-10.627,10.69-10.627h68.61C90.218,13.346,95,18.106,95,23.974z M84.146,30.25  c0-4.455-3.63-8.069-8.11-8.069H23.961c-4.474,0-8.106,3.614-8.106,8.069v39.498c0,4.455,3.633,8.066,8.106,8.066h52.074  c4.48,0,8.11-3.611,8.11-8.066V30.25z M10.299,67.682l-0.751,0.379l0.64,0.773L10.299,67.682z M17.94,67.582  c0,0-0.037,8.512,11.984,6.926h39.562c0,0,12.282,2.105,11.691-9.248l0.004-11.182l-1.793-8.481l-7.508,20.081L58.216,43.444  L40.731,63.473L24.868,50.844l-6.946,9.705L17.94,67.582z"/><text x="0" y="115" fill="#000000" font-size="5px" font-weight="bold" font-family="'Helvetica Neue', Helvetica, Arial-Unicode, Arial, Sans-serif">Created by Cris Dobbins</text><text x="0" y="120" fill="#000000" font-size="5px" font-weight="bold" font-family="'Helvetica Neue', Helvetica, Arial-Unicode, Arial, Sans-serif">from the Noun Project</text></svg>
